<svg width="512" height="512" viewBox="0 0 512 512" fill="none" xmlns="http://www.w3.org/2000/svg">
<g clip-path="url(#clip0_85_506)">
<path d="M257.875 165.75C258.57 165.73 259.265 165.709 259.981 165.688C264.766 165.652 267.945 166.479 272 169C276.926 173.926 278.556 178.297 279.375 185.125C278.173 197.549 272.438 209.641 264.411 219.164C259.698 224.358 259.698 224.358 257.879 230.84C258.394 233.629 258.394 233.629 259.239 236.309C260.43 240.516 260.17 244.664 260 249C261.13 248.126 261.13 248.126 262.282 247.235C265.202 244.978 268.129 242.732 271.059 240.488C272.323 239.519 273.587 238.548 274.848 237.574C333.749 192.18 333.749 192.18 364 196C369.212 197.637 371.892 200.3 374.438 205.063C378.212 213.609 377.299 220.608 374.457 229.332C370.76 238.639 365.749 247.076 359.188 254.625C356.779 257.819 355.881 259.071 356.395 263.082C357.154 265.386 357.969 267.673 358.828 269.942C361.396 277.501 360.285 286.136 360 294C361.054 293.408 362.107 292.817 363.192 292.207C392.983 275.762 392.983 275.762 408.875 280C414.341 282.162 417.624 286.144 420.133 291.352C423.391 301.301 420.46 310.977 416 320C410.374 330.696 403.453 339.9 395.399 348.91C394.566 349.868 393.733 350.826 392.875 351.813C392.11 352.665 391.344 353.517 390.555 354.395C388.735 356.9 388.735 356.9 389.133 359.824C389.768 362.15 390.404 364.475 391.039 366.801C394.965 382.201 391.473 398.008 383.618 411.512C378.408 419.528 371.49 425.164 364 431C363.347 431.554 362.693 432.109 362.02 432.68C358.99 435.135 356.6 436.325 352.75 436.5C349 436 349 436 347.063 434.875C345.532 432.173 345.125 430.106 345 427C347.169 422.345 350.478 419.602 354.375 416.438C354.94 415.969 355.505 415.5 356.086 415.018C358.596 412.941 361.116 410.913 363.719 408.953C369.531 403.977 373.733 395.53 375 388C375.316 382.668 375.177 377.335 375 372C370.857 375.423 367.006 378.967 363.25 382.813C358.146 387.971 352.687 392.504 347 397C346.25 397.629 345.5 398.258 344.727 398.906C334.198 407.572 322.838 412.403 309.188 412.313C308.299 412.307 307.411 412.301 306.495 412.296C295.388 412.09 286.705 409.311 278.469 401.559C273.948 396.5 271.452 390.233 269 384C261.609 389.763 254.262 395.574 247 401.5C242.038 405.55 237.049 409.558 232 413.5C224.246 419.559 216.624 425.777 209 432C200.816 438.681 192.616 445.334 184.289 451.837C179.816 455.338 175.402 458.908 171 462.5C165.484 467.002 159.924 471.438 154.311 475.819C148.926 480.033 143.622 484.345 138.328 488.674C137.692 489.194 137.055 489.714 136.399 490.25C135.839 490.709 135.278 491.168 134.701 491.641C132.831 493.136 130.918 494.567 129 496C143.266 496.047 157.531 496.082 171.796 496.104C178.421 496.114 185.046 496.128 191.671 496.151C198.07 496.173 204.47 496.185 210.87 496.19C213.305 496.194 215.74 496.201 218.175 496.212C221.599 496.226 225.024 496.228 228.449 496.227C229.443 496.234 230.438 496.242 231.463 496.249C254.039 496.184 267.127 486.976 284 473C292.905 465.701 301.843 458.442 310.946 451.391C312.78 449.955 314.594 448.494 316.368 446.985C319.6 444.293 321.979 442.626 326.25 442.313C330 443 330 443 332.563 445.063C334 448 334 448 334.375 451.25C332.22 457.128 327.797 460.156 323 464C322.233 464.625 321.466 465.251 320.676 465.895C319.086 467.177 317.488 468.45 315.883 469.715C313.004 471.997 310.153 474.312 307.307 476.635C263.697 512.214 263.697 512.214 243.46 512.268C242.388 512.274 242.388 512.274 241.294 512.281C238.924 512.294 236.553 512.292 234.183 512.291C232.474 512.297 230.765 512.303 229.056 512.311C224.432 512.329 219.809 512.333 215.185 512.335C212.296 512.336 209.407 512.34 206.517 512.346C196.437 512.364 186.356 512.372 176.276 512.371C166.878 512.37 157.48 512.391 148.083 512.422C140.009 512.448 131.936 512.459 123.863 512.458C119.043 512.457 114.223 512.463 109.403 512.484C104.875 512.504 100.348 512.504 95.8203 512.489C94.1578 512.487 92.4953 512.492 90.8328 512.504C88.5658 512.519 86.3002 512.51 84.0332 512.495C82.1297 512.496 82.1297 512.496 80.1876 512.498C77.0004 512 77.0003 512 74.592 510.188C72.2674 506.993 72.4504 504.85 73.0004 501C75.053 498.328 76.1637 497.122 79.5431 496.629C80.4867 496.678 81.4304 496.727 82.4027 496.777C83.4516 496.803 84.5005 496.828 85.5812 496.854C86.6889 496.882 87.7966 496.909 88.9379 496.938C98.1604 496.868 104.09 496.271 110.669 489.63C111.635 488.606 112.59 487.572 113.535 486.527C116.044 483.913 118.929 481.806 121.813 479.625C122.988 478.713 124.161 477.799 125.332 476.883C125.929 476.417 126.525 475.95 127.14 475.47C130.456 472.85 133.727 470.173 137 467.5C141.963 463.45 146.952 459.442 152 455.5C159.755 449.441 167.377 443.223 175 437C183.185 430.319 191.384 423.666 199.712 417.164C204.185 413.662 208.599 410.092 213 406.5C218.524 401.993 224.092 397.552 229.711 393.164C234.876 389.121 239.96 384.982 245.042 380.834C249.303 377.361 253.602 373.942 257.938 370.563C263.198 366.461 268.363 362.254 273.5 358C279.192 353.287 284.934 348.656 290.762 344.113C295.908 340.095 300.968 335.977 306.024 331.847C309.866 328.715 313.735 325.625 317.647 322.582C320.444 320.404 323.224 318.205 326 316C326.878 315.304 327.756 314.608 328.661 313.891C336.14 307.648 340.805 300.551 343 291C343.131 288.357 343.172 285.708 343.125 283.063C343.112 282.037 343.112 282.037 343.098 280.99C343.075 279.327 343.039 277.663 343 276C338.408 279.736 334.178 283.751 330.016 287.957C329.471 288.507 328.927 289.057 328.366 289.624C326.091 291.926 323.82 294.232 321.554 296.542C314.369 303.86 307.122 310.711 299 317C298.144 317.665 297.287 318.33 296.404 319.015C283.821 328.597 269.46 331.306 254 330C243.521 327.953 235.552 322.999 229.387 314.301C226.834 310.066 224.895 305.56 223 301C215.41 306.894 207.901 312.87 200.5 319C194.809 323.713 189.067 328.345 183.239 332.887C178.779 336.369 174.383 339.923 170 343.5C164.935 347.635 159.84 351.724 154.688 355.75C149.729 359.627 144.827 363.564 139.965 367.563C130.816 375.084 121.625 382.546 112.29 389.836C107.816 393.337 103.402 396.908 99.0004 400.5C93.477 405.008 87.9085 409.449 82.2894 413.836C77.1243 417.879 72.0404 422.019 66.9591 426.166C62.6972 429.639 58.399 433.058 54.0629 436.438C48.0654 441.115 42.1675 445.906 36.3544 450.811C32.9414 453.672 29.5388 456.37 25.8089 458.809C18.7339 463.371 18.7339 463.371 15.0316 470.699C14.9374 474.642 15.2689 478.129 16.0004 482C16.1692 482.93 16.3381 483.859 16.5121 484.817C17.5713 488.912 18.6311 490.679 21.8754 493.5C28.5261 496.693 35.6271 496.286 42.8714 496.43C43.7416 496.461 44.6117 496.492 45.5082 496.524C46.2985 496.543 47.0889 496.563 47.9032 496.584C50.5113 497.102 51.3906 497.915 53.0004 500C54.1234 503.69 54.3377 505.31 52.6254 508.813C51.0004 511 51.0004 511 50.0004 512C45.572 512.371 41.1296 512.372 36.6879 512.438C34.8422 512.506 34.8422 512.506 32.9593 512.576C23.3502 512.693 15.5467 510.681 8.07531 504.376C0.82409 496.604 -0.590867 488.045 -0.501354 477.754C-0.506757 476.56 -0.512176 475.365 -0.517742 474.134C-0.528052 470.882 -0.520569 467.63 -0.504009 464.378C-0.490065 460.958 -0.496621 457.538 -0.500134 454.118C-0.502829 448.376 -0.489437 442.634 -0.466198 436.892C-0.439605 430.276 -0.43785 423.66 -0.449597 417.044C-0.460419 410.652 -0.454155 404.261 -0.440045 397.869C-0.434322 395.162 -0.434326 392.454 -0.439098 389.747C-0.442023 385.956 -0.425442 382.166 -0.403698 378.375C-0.4082 377.266 -0.412701 376.157 -0.417339 375.014C-0.282707 360.821 4.66889 349.909 14.3089 339.586C18.3344 335.718 22.6887 332.363 27.1254 328.985C31.3431 325.767 35.4207 322.39 39.5004 319C45.191 314.286 50.9336 309.656 56.7621 305.113C61.2212 301.632 65.6177 298.078 70.0004 294.5C75.0658 290.366 80.161 286.276 85.3129 282.25C90.2718 278.373 95.1733 274.436 100.036 270.438C109.184 262.916 118.376 255.454 127.711 248.165C132.184 244.663 136.599 241.092 141 237.5C146.551 232.972 152.141 228.501 157.786 224.092C161.382 221.281 164.949 218.438 168.501 215.573C230.081 165.954 230.081 165.954 257.875 165.75ZM183 225C179.587 227.756 176.18 230.519 172.783 233.295C168.308 236.951 163.796 240.557 159.25 244.125C158.678 244.575 158.105 245.024 157.515 245.487C155.262 247.25 153.033 248.979 150.641 250.551C148.85 251.867 148.85 251.867 148.469 253.91C148.576 261.251 150.202 268.13 155.438 273.5C163.229 278.061 172.085 278.296 180.817 276.383C197.888 270.19 211.337 253.728 223.927 241.248C225.332 239.856 226.74 238.468 228.148 237.08C234.202 231.033 239.693 224.708 245 218C245.94 216.846 246.88 215.692 247.821 214.539C258.912 200.731 258.912 200.731 263 184C262.505 183.01 262.505 183.01 262 182C238.61 174.588 199.534 211.671 183 225ZM293.022 244.153C282.38 251.992 272.111 260.274 261.957 268.731C257.035 272.82 252.001 276.763 246.953 280.695C245.979 281.456 245.004 282.217 244 283C243.057 283.696 242.113 284.392 241.141 285.11C238.68 286.879 238.68 286.879 238.5 290.125C239.515 297.99 241.159 304.431 247 310C254.721 314.57 263.179 315.366 271.914 313.317C281.633 310.018 288.898 304.357 296.348 297.442C298.379 295.572 300.434 293.773 302.532 291.981C307.84 287.348 312.811 282.375 317.791 277.395C319.426 275.762 321.069 274.137 322.713 272.512C329.261 265.999 335.295 259.277 341 252C341.6 251.255 342.199 250.51 342.816 249.742C355.868 234.136 355.868 234.136 361 215C360.505 213.515 360.505 213.515 360 212C338.361 206.542 309.614 232.157 293.022 244.153ZM241.328 245.574C240.643 246.272 239.957 246.969 239.25 247.688C238.575 248.372 237.899 249.057 237.203 249.762C236.476 250.5 235.749 251.239 235 252C234.231 252.767 233.461 253.534 232.668 254.324C230.669 256.329 228.691 258.348 226.723 260.383C211.402 276.115 195.058 291.64 172.071 292.992C161.388 293.02 151.592 290.149 143.09 283.508C138.172 278.451 136.226 271.55 134 265C123.079 273.082 112.488 281.574 101.963 290.162C97.116 294.112 92.2173 297.988 87.2894 301.836C82.1243 305.879 77.0404 310.019 71.9591 314.166C67.6972 317.639 63.399 321.058 59.0629 324.438C52.9751 329.186 47.0082 334.073 41.0643 339C36.4322 342.837 31.7554 346.595 26.9808 350.254C19.0829 357.217 16.2073 365.831 15.0004 376C14.746 381.465 14.766 386.919 14.805 392.387C14.8088 393.941 14.8116 395.494 14.8136 397.048C14.8212 401.1 14.8408 405.152 14.863 409.205C14.8836 413.355 14.8927 417.505 14.9027 421.654C14.924 429.77 14.9581 437.885 15.0004 446C16.2554 445.064 17.5096 444.128 18.7635 443.19C19.4621 442.669 20.1606 442.147 20.8803 441.61C24.1959 439.092 27.4087 436.454 30.6254 433.813C35.7112 429.657 40.8226 425.541 46.0004 421.5C51.0489 417.558 56.038 413.55 61.0004 409.5C65.9627 405.45 70.9519 401.442 76.0004 397.5C82.5126 392.414 88.924 387.209 95.3285 381.988C98.9758 379.016 102.649 376.077 106.328 373.145C109.123 370.901 111.902 368.639 114.68 366.375C120.977 361.243 127.308 356.164 133.71 351.165C138.184 347.663 142.599 344.092 147 340.5C152.524 335.993 158.092 331.552 163.711 327.164C168.185 323.662 172.599 320.092 177 316.5C182.524 311.993 188.092 307.552 193.711 303.164C198.869 299.127 203.946 294.994 209.02 290.851C213.495 287.204 218.013 283.617 222.563 280.063C223.71 279.159 224.857 278.256 226.004 277.352C227.729 275.998 229.462 274.653 231.215 273.336C237.918 268.085 242.451 260.366 244 252C244.134 249.308 244.095 246.699 244 244C242.739 243.886 242.739 243.886 241.328 245.574ZM382.156 300.67C378.736 302.384 375.363 304.178 372 306C371.399 306.321 370.798 306.643 370.179 306.974C350.191 317.721 332.33 331.926 314.822 346.254C310.461 349.823 306.061 353.336 301.625 356.813C301.055 357.265 300.485 357.718 299.898 358.184C297.278 360.257 294.655 362.24 291.907 364.145C287.132 367.365 287.132 367.365 284.25 372.141C283.895 378.491 286.298 385.831 290.426 390.672C297.708 397.07 305.884 396.574 315 396C333.11 393.463 349.73 373.623 362.098 361.163C363.823 359.428 365.558 357.703 367.295 355.979C373.977 349.306 380.167 342.44 386 335C387.171 333.555 388.341 332.109 389.512 330.664C400.848 316.933 400.848 316.933 405.375 300.188C405.252 299.136 405.128 298.084 405 297C397.206 293.208 389.479 297.139 382.156 300.67Z" fill="#9E6061"/>
<path d="M424.114 -0.388036C425.3 -0.395922 425.3 -0.395922 426.511 -0.403966C429.112 -0.417113 431.712 -0.408447 434.313 -0.39829C436.128 -0.400312 437.944 -0.403225 439.759 -0.406988C443.559 -0.411404 447.358 -0.405003 451.158 -0.390966C456.02 -0.373874 460.882 -0.383719 465.744 -0.401683C469.491 -0.41254 473.239 -0.409066 476.986 -0.4013C478.778 -0.399303 480.571 -0.401738 482.363 -0.408738C484.872 -0.416385 487.379 -0.404705 489.887 -0.388036C490.991 -0.397145 490.991 -0.397145 492.117 -0.406438C498.224 -0.331515 502.102 1.36644 506.688 5.31265C512.24 11.7645 512.521 17.4253 512.5 25.6251C512.529 26.6616 512.557 27.698 512.586 28.7658C512.606 36.287 512.606 36.287 509.696 39.715C506.021 41.4669 503.878 41.0773 500 40.0001C498.317 38.9689 498.317 38.9689 497 37.0001C496.654 33.3856 496.564 29.8736 496.561 26.2482C496.533 25.1373 496.533 25.1373 496.504 24.0041C496.502 23.3319 496.501 22.6597 496.499 21.9672C495.75 19.012 494.368 17.8901 492 16.0001C488.845 15.4078 488.845 15.4078 485.276 15.5143C484.609 15.5105 483.941 15.5067 483.254 15.5028C481.054 15.4954 478.856 15.5168 476.657 15.5392C475.125 15.5416 473.593 15.5425 472.062 15.542C468.854 15.5451 465.646 15.5617 462.438 15.5885C458.329 15.6225 454.22 15.6302 450.111 15.6286C446.949 15.6292 443.787 15.6402 440.625 15.6546C439.11 15.661 437.595 15.6649 436.08 15.6664C433.961 15.6708 431.843 15.6883 429.725 15.7096C427.918 15.7211 427.918 15.7211 426.074 15.7327C423.147 15.9874 421.468 16.4667 419 18.0001C418.899 25.4931 418.829 32.9859 418.781 40.4794C418.761 43.0296 418.733 45.5797 418.699 48.1298C418.65 51.7911 418.627 55.4518 418.61 59.1134C418.589 60.2573 418.568 61.4011 418.547 62.5796C418.547 64.1709 418.547 64.1709 418.546 65.7943C418.537 66.7292 418.529 67.6641 418.519 68.6273C418.799 71.0929 418.799 71.0929 420.628 72.6952C423.499 74.2746 426.267 75.1747 429.418 76.0849C430.37 76.3635 430.37 76.3635 431.341 76.6478C433.431 77.2569 435.524 77.8535 437.618 78.4494C439.077 78.8705 440.537 79.2923 441.997 79.7145C445.053 80.5965 448.111 81.4725 451.171 82.3441C455.083 83.4593 458.992 84.5892 462.899 85.7237C465.912 86.5969 468.927 87.4623 471.943 88.3255C473.384 88.739 474.825 89.1549 476.265 89.5731C478.283 90.1577 480.303 90.732 482.324 91.3036C483.471 91.6321 484.618 91.9606 485.8 92.299C488.975 92.9946 491.762 93.1331 495 93.0001C495.816 89.4152 496.133 86.0756 496.176 82.4025C496.2 81.3538 496.224 80.3052 496.248 79.2248C496.291 77.0296 496.323 74.8343 496.342 72.6388C496.37 71.5915 496.398 70.5441 496.426 69.465C496.441 68.5123 496.455 67.5596 496.47 66.578C497.153 63.2569 498.346 62.0551 501 60.0001C504.854 59.4496 506.994 59.2632 510.186 61.6007C512.617 64.8162 512.517 66.8839 512.532 70.8908C512.535 71.5542 512.539 72.2177 512.543 72.9012C512.546 74.3032 512.539 75.7052 512.522 77.1071C512.501 79.2302 512.522 81.3498 512.547 83.4728C512.564 90.9237 512.347 96.7707 508 103C505.746 105.059 505.746 105.059 503.438 106.438C502.673 106.911 501.909 107.384 501.121 107.871C497.953 109.558 495.354 110.156 491.813 110.188C491.097 110.202 490.382 110.216 489.645 110.231C485.969 109.91 482.575 108.919 479 108C478.997 108.659 478.993 109.318 478.989 109.996C478.947 116.875 478.878 123.753 478.793 130.632C478.765 133.196 478.743 135.761 478.729 138.325C478.708 142.019 478.661 145.713 478.61 149.406C478.609 150.546 478.607 151.686 478.606 152.861C478.497 158.846 477.936 163 474.925 168.185C473.362 171.252 473.321 174.312 473.129 177.707C473.032 179.182 472.935 180.657 472.837 182.132C472.793 182.895 472.749 183.659 472.704 184.445C470.993 213.224 467.971 261.162 445.903 282.68C440.614 286.35 435.217 287.488 428.875 286.563C423.552 285.176 420.102 282.561 416 279C414.908 278.098 413.815 277.199 412.719 276.301C411.541 275.327 410.364 274.352 409.188 273.375C408.624 272.908 408.06 272.441 407.48 271.959C403.539 268.627 400.643 265.928 399 261C398.495 254.932 399.07 250.841 403 246C404.712 244.294 406.443 242.609 408.188 240.938C422.319 227.314 429.763 208.866 434 190C434.226 189.023 434.452 188.046 434.684 187.039C436.099 180.23 437.919 171.296 434.998 164.755C433.789 161.417 433.76 158.739 433.773 155.19C433.773 154.526 433.773 153.862 433.772 153.178C433.774 150.998 433.789 148.817 433.805 146.637C433.809 145.119 433.812 143.602 433.814 142.085C433.821 138.101 433.841 134.118 433.863 130.135C433.884 126.066 433.893 121.997 433.903 117.928C433.924 109.952 433.958 101.976 434 94.0001C432.922 93.8546 431.844 93.7091 430.733 93.5592C421.88 92.2331 412.5 89.8087 406.297 83.0392C401.548 75.5716 401.56 69.1125 401.602 60.4025C401.599 59.0949 401.596 57.7872 401.593 56.44C401.589 53.6822 401.595 50.9247 401.609 48.1669C401.626 44.6441 401.617 41.1221 401.599 37.5993C401.585 34.2212 401.595 30.8432 401.602 27.465C401.596 26.2055 401.59 24.946 401.584 23.6483C401.593 22.4701 401.602 21.2919 401.612 20.078C401.616 18.5308 401.616 18.5308 401.619 16.9524C402.399 10.9116 405.475 6.8944 410 3.00015C414.723 0.124506 418.697 -0.43274 424.114 -0.388036ZM450 99.0001C449.933 106.771 449.878 114.542 449.845 122.314C449.829 125.922 449.808 129.531 449.774 133.139C449.741 136.621 449.724 140.103 449.716 143.585C449.708 145.561 449.684 147.536 449.66 149.512C449.66 150.713 449.66 151.914 449.66 153.152C449.653 154.211 449.646 155.27 449.64 156.362C449.791 159.016 449.791 159.016 451.334 160.842C453.931 162.647 455.932 162.384 459 162C460.774 160.882 460.774 160.882 462 159C462.436 156.398 462.436 156.398 462.341 153.427C462.341 152.286 462.341 151.145 462.34 149.97C462.325 148.738 462.309 147.507 462.293 146.238C462.287 144.347 462.287 144.347 462.28 142.417C462.267 139.068 462.24 135.72 462.206 132.371C462.176 128.953 462.162 125.534 462.147 122.115C462.114 115.41 462.062 108.705 462 102C456.06 100.515 456.06 100.515 450 99.0001ZM453 178C452.575 179.914 452.575 179.914 452.141 181.867C451.957 182.692 451.774 183.517 451.584 184.366C451.207 186.067 450.833 187.768 450.463 189.47C444.813 215.324 435.548 237.584 416 256C417.552 260.059 420.202 262.037 423.563 264.688C424.554 265.475 425.545 266.263 426.567 267.074C427.37 267.71 428.173 268.345 429 269C429.33 269.33 429.66 269.66 430 270C432.415 270.501 432.415 270.501 435 270C451.854 246.351 457.342 205.988 457 178C455.68 178 454.36 178 453 178Z" fill="#9E6061"/>
</g>
<defs>
<clipPath id="clip0_85_506">
<rect width="512" height="512" fill="white"/>
</clipPath>
</defs>
</svg>
